<svg xmlns="http://www.w3.org/2000/svg" viewBox="0 0 64 64"><g data-name="Layer 2"><polygon points="6 58 25.5 58 28.13 52.75 6.95 52.75 6 58"/><path d="M50.36,16H38.76v3.75a1,1,0,0,1-2,0V16h-11V33.12a1,1,0,0,1-2,0V16H13.64L7.32,50.75H29.13L32,45l2.88,5.75h21.8Z"/><polygon points="57.05 52.75 35.88 52.75 38.5 58 58 58 57.05 52.75"/><path d="M25.75,14H50V6H46.42v5a1,1,0,0,1-2,0V6h-1.8v5a1,1,0,0,1-2,0V6H38.76v5a1,1,0,0,1-2,0V6H35.33v5a1,1,0,0,1-2,0V6H30.67v5a1,1,0,0,1-2,0V6H27.24v5a1,1,0,1,1-2,0V6H23.38v5a1,1,0,0,1-2,0V6h-1.8v5a1,1,0,0,1-2,0V6H14v8H25.75Z"/></g></svg>