<svg xmlns="http://www.w3.org/2000/svg" data-name="Layer 2" viewBox="0 0 64 64"><path d="M59 20.19336a9.99646 9.99646 0 01-4.93066-1.17871 8.91078 8.91078 0 00-8.13086 0 9.99776 9.99776 0 01-4.93164 1.17871 10.00215 10.00215 0 01-4.93262-1.17871 7.99764 7.99764 0 00-4.06836-.98145 7.99232 7.99232 0 00-4.06641.98145 9.99776 9.99776 0 01-4.93164 1.17871 10.0109 10.0109 0 01-4.93457-1.17871 8.00167 8.00167 0 00-4.06933-.98145 8.00172 8.00172 0 00-4.06934.98145A10.01087 10.01087 0 015 20.19336v-2a8.00172 8.00172 0 004.06934-.98145 10.01084 10.01084 0 014.93457-1.17871 10.0109 10.0109 0 014.93457 1.17871 8.00167 8.00167 0 004.06933.98145 7.99509 7.99509 0 004.06641-.98145 9.99776 9.99776 0 014.93164-1.17871 10.00341 10.00341 0 014.93359 1.17871 7.9964 7.9964 0 004.06739.98145 7.99227 7.99227 0 004.0664-.98145 10.90209 10.90209 0 019.86133 0A7.98824 7.98824 0 0059 18.19336zM49.01423 36.949a3.63127 3.63127 0 01-4.74578-.31159 3.1158 3.1158 0 01-.34271-.39462 3.63256 3.63256 0 015.79463-4.38227 5.12637 5.12637 0 01.28041.43613A3.625 3.625 0 0149.01423 36.949z"/><polygon points="50.08 43 48.08 47 38.08 42 37.08 39 23.08 39 18.13 29.21 24.13 28.32 26.08 32 41.08 32 43.08 39 50.08 43"/><path d="M39.001 33H28.999a3 3 0 010-6H39.001a3 3 0 010 6zM28.999 29a1 1 0 000 2H39.001a1 1 0 000-2zM22.14 22.76L7.07 25.27l4.85 4.85 6.21-.91 6-.88995 1.1-.16zm-4.96 4.56l-4.56.67-1.38-1.38 9.85-1.65.94 1.65-3.41.5z"/></svg>